<?xml version="1.0" encoding="UTF-8"?>
<svg xmlns="http://www.w3.org/2000/svg" width="14" height="13" viewBox="0 0 14 13" fill="none">
  <path d="M7 3.60547C8.72266 3.60547 10.1445 5.02734 10.1445 6.75C10.1445 8.5 8.72266 9.89453 7 9.89453C5.25 9.89453 3.85547 8.5 3.85547 6.75C3.85547 5.02734 5.25 3.60547 7 3.60547ZM7 8.80078C8.12109 8.80078 9.02344 7.89844 9.02344 6.75C9.02344 5.62891 8.12109 4.72656 7 4.72656C5.85156 4.72656 4.94922 5.62891 4.94922 6.75C4.94922 7.89844 5.87891 8.80078 7 8.80078ZM10.9922 3.49609C10.9922 3.90625 10.6641 4.23438 10.2539 4.23438C9.84375 4.23438 9.51562 3.90625 9.51562 3.49609C9.51562 3.08594 9.84375 2.75781 10.2539 2.75781C10.6641 2.75781 10.9922 3.08594 10.9922 3.49609ZM13.0703 4.23438C13.125 5.24609 13.125 8.28125 13.0703 9.29297C13.0156 10.2773 12.7969 11.125 12.0859 11.8633C11.375 12.5742 10.5 12.793 9.51562 12.8477C8.50391 12.9023 5.46875 12.9023 4.45703 12.8477C3.47266 12.793 2.625 12.5742 1.88672 11.8633C1.17578 11.125 0.957031 10.2773 0.902344 9.29297C0.847656 8.28125 0.847656 5.24609 0.902344 4.23438C0.957031 3.25 1.17578 2.375 1.88672 1.66406C2.625 0.953125 3.47266 0.734375 4.45703 0.679688C5.46875 0.625 8.50391 0.625 9.51562 0.679688C10.5 0.734375 11.375 0.953125 12.0859 1.66406C12.7969 2.375 13.0156 3.25 13.0703 4.23438ZM11.7578 10.3594C12.0859 9.56641 12.0039 7.65234 12.0039 6.75C12.0039 5.875 12.0859 3.96094 11.7578 3.14062C11.5391 2.62109 11.1289 2.18359 10.6094 1.99219C9.78906 1.66406 7.875 1.74609 7 1.74609C6.09766 1.74609 4.18359 1.66406 3.39062 1.99219C2.84375 2.21094 2.43359 2.62109 2.21484 3.14062C1.88672 3.96094 1.96875 5.875 1.96875 6.75C1.96875 7.65234 1.88672 9.56641 2.21484 10.3594C2.43359 10.9062 2.84375 11.3164 3.39062 11.5352C4.18359 11.8633 6.09766 11.7812 7 11.7812C7.875 11.7812 9.78906 11.8633 10.6094 11.5352C11.1289 11.3164 11.5664 10.9062 11.7578 10.3594Z" fill="white"></path>
</svg>
