<?xml version="1.0" encoding="UTF-8"?>
<svg xmlns="http://www.w3.org/2000/svg" width="38" height="39" viewBox="0 0 38 39" fill="none">
  <path d="M19 15.6047L17.5829 17.2232L15.6057 18.0709L16.7071 19.9187L16.9022 22.061L19 21.5847L21.0978 22.061L21.2929 19.9187L22.3943 18.0709L20.4171 17.2232L19 15.6047Z" fill="#0588BF"></path>
  <path d="M32.2835 32.1528L32.9119 30.9511C33.3504 30.1126 33.9086 29.3446 34.571 28.6688L35.5235 27.6972C37.027 26.1634 37.7376 23.9791 37.4244 21.8542L37.226 20.5081C37.088 19.5718 37.0885 18.6225 37.2274 17.6865L37.4263 16.3452C37.7419 14.218 37.0315 12.0312 35.5261 10.4955L34.5818 9.53226C33.9148 8.85183 33.3535 8.07823 32.9137 7.23308L32.2956 6.04553C31.3003 4.13329 29.4368 2.77865 27.3108 2.42183L25.9935 2.2008C25.0506 2.04255 24.1389 1.74587 23.2834 1.31905L22.0881 0.72277C21.1227 0.240923 20.0631 0 19.0037 0C17.9465 0 16.8895 0.239828 15.9254 0.719667L14.7268 1.31623C13.874 1.74076 12.9651 2.03598 12.0253 2.19377L10.6949 2.41699C8.57414 2.77299 6.7131 4.12316 5.71655 6.02874L5.08805 7.23044C4.64955 8.06892 4.09141 8.83686 3.42896 9.51273L2.4765 10.4843C0.973007 12.0181 0.262375 14.2024 0.575575 16.3273L0.773971 17.6734C0.911955 18.6097 0.911498 19.559 0.772602 20.495L0.573658 21.8363C0.258085 23.9635 0.968535 26.1503 2.47394 27.686L3.4182 28.6492C4.08521 29.3297 4.64645 30.1033 5.08632 30.9484L5.70441 32.136C6.69968 34.0482 8.56319 35.4029 10.6892 35.7597L12.0065 35.9807C12.9494 36.1389 13.8611 36.4356 14.7166 36.8624L15.9119 37.4587C17.8408 38.4212 20.1446 38.4222 22.0745 37.4617L23.2731 36.8652C24.1259 36.4407 25.0349 36.1454 25.9746 35.9876L27.305 35.7644C29.4259 35.4085 31.2869 34.0583 32.2835 32.1528ZM19 32.8579C11.4087 32.8579 5.23288 26.682 5.23288 19.0908C5.23288 11.4996 11.4087 5.32358 19 5.32358C26.5913 5.32358 32.7671 11.4995 32.7671 19.0907C32.7671 26.6819 26.5913 32.8579 19 32.8579Z" fill="#0588BF"></path>
  <path d="M19.0001 8.06134C12.9184 8.06134 7.9707 13.0091 7.9707 19.0907C7.9707 25.1723 12.9184 30.1201 19.0001 30.1201C25.0817 30.1201 30.0294 25.1724 30.0294 19.0908C30.0294 13.0092 25.0817 8.06134 19.0001 8.06134ZM23.9631 20.7863L23.5407 25.4233L19.0001 24.3921L14.4594 25.4233L14.037 20.7863L11.6531 16.7865L15.9327 14.9518L19.0001 11.4487L22.0674 14.9519L26.3469 16.7866L23.9631 20.7863Z" fill="#0588BF"></path>
</svg>
