<?xml version="1.0" encoding="UTF-8"?>
<svg xmlns="http://www.w3.org/2000/svg" width="34" height="36" viewBox="0 0 34 36" fill="none">
  <path fill-rule="evenodd" clip-rule="evenodd" d="M0.371826 6.25862C0.371826 4.59952 1.03183 3.00641 2.2039 1.83207C3.37824 0.66 4.97134 0 6.63045 0H27.1132C28.7723 0 30.3654 0.66 31.5398 1.83207C32.7118 3.00641 33.3718 4.59952 33.3718 6.25862V23.3276C33.3718 24.9867 32.7118 26.5798 31.5398 27.7541C30.7773 28.5143 29.8374 29.0605 28.8201 29.3495V33.569C28.8201 34.2312 28.4378 34.8343 27.8369 35.1143C27.2384 35.3965 26.5283 35.3032 26.0208 34.8799L19.8259 29.7182C19.7235 29.634 19.5938 29.5862 19.4618 29.5862H6.63045C4.97134 29.5862 3.37824 28.9262 2.2039 27.7541C1.03183 26.5798 0.371826 24.9867 0.371826 23.3276V6.25862ZM11.1822 12.5172H18.0098C18.952 12.5172 19.7167 11.7526 19.7167 10.8103C19.7167 9.86814 18.952 9.10345 18.0098 9.10345H11.1822C10.24 9.10345 9.47527 9.86814 9.47527 10.8103C9.47527 11.7526 10.24 12.5172 11.1822 12.5172ZM11.1822 19.3448H22.5615C23.5037 19.3448 24.2684 18.5801 24.2684 17.6379C24.2684 16.6957 23.5037 15.931 22.5615 15.931H11.1822C10.24 15.931 9.47527 16.6957 9.47527 17.6379C9.47527 18.5801 10.24 19.3448 11.1822 19.3448Z" fill="#0588BF"></path>
</svg>
