<?xml version="1.0" encoding="UTF-8"?>
<svg xmlns="http://www.w3.org/2000/svg" width="39" height="39" viewBox="0 0 39 39" fill="none">
  <path d="M19.5002 0C8.5978 0.13322 5.21748 14.5732 14.7384 19.5759C21.2925 23.2056 30.0399 18.0303 29.8733 10.3732C29.8709 7.62285 28.7772 4.98581 26.8324 3.04099C24.8876 1.09616 22.2506 0.00247579 19.5002 0Z" fill="#0588BF"></path>
  <path d="M32.434 22.2971L26.7423 20.3965C24.6385 21.9243 22.1051 22.7472 19.505 22.7472C16.905 22.7472 14.3716 21.9243 12.2678 20.3965L6.56605 22.2971C4.79912 22.8865 3.26264 24.0174 2.17457 25.5292C1.08649 27.041 0.502053 28.857 0.504156 30.7197V34.791C0.505832 35.6527 0.848884 36.4786 1.4582 37.0879C2.06752 37.6973 2.89345 38.0403 3.75516 38.042H35.2449C36.1067 38.0403 36.9326 37.6973 37.5419 37.0879C38.1512 36.4786 38.4943 35.6527 38.4959 34.791V30.7197C38.498 28.857 37.9136 27.041 36.8255 25.5292C35.7375 24.0174 34.201 22.8865 32.434 22.2971Z" fill="#0588BF"></path>
</svg>
