<?xml version="1.0" encoding="UTF-8"?>
<svg xmlns="http://www.w3.org/2000/svg" width="38" height="34" viewBox="0 0 38 34" fill="none">
  <path fill-rule="evenodd" clip-rule="evenodd" d="M23.8929 2.93462L36.5891 25.1961C37.6329 27.0263 37.6329 29.2351 36.5891 31.0654C35.5453 32.8956 33.6557 34 31.5681 34H6.17583C4.08818 34 2.19863 32.8956 1.15485 31.0654C0.110982 29.2352 0.110982 27.0263 1.15485 25.1961L13.851 2.93462C14.8947 1.10441 16.7843 0 18.8719 0C20.9596 0 22.8491 1.10441 23.8929 2.93462ZM18.8719 24.6845C17.798 24.6845 16.9275 25.5659 16.9275 26.653C16.9275 27.74 17.7981 28.6214 18.8719 28.6214C19.9458 28.6214 20.8164 27.7401 20.8164 26.653C20.8164 25.5659 19.9458 24.6845 18.8719 24.6845ZM18.872 21.1708C19.6888 21.1708 20.3594 20.516 20.3888 19.6897L20.7724 8.93402C20.8037 8.05864 20.1209 7.34205 19.2557 7.34205C18.7132 7.34205 19.0307 7.34205 18.4883 7.34205C17.623 7.34205 16.9402 8.05864 16.9715 8.93402L17.3551 19.6897C17.3845 20.516 18.0553 21.1708 18.872 21.1708Z" fill="#0588BF"></path>
</svg>
