<?xml version="1.0" encoding="UTF-8"?>
<svg xmlns="http://www.w3.org/2000/svg" width="34" height="33" viewBox="0 0 34 33" fill="none">
  <path d="M23.7853 0H9.95833C3.95233 0 0.371826 3.5805 0.371826 9.5865V23.4135C0.371826 29.4195 3.95233 33 9.95833 33H23.7853C29.7913 33 33.3718 29.4195 33.3718 23.4135V9.5865C33.3718 3.5805 29.7913 0 23.7853 0ZM13.5223 21.285L9.80983 24.9975C9.56233 25.245 9.24883 25.3605 8.93533 25.3605C8.62183 25.3605 8.29183 25.245 8.06083 24.9975L6.82333 23.76C6.32833 23.2815 6.32833 22.4895 6.82333 22.011C7.30183 21.5325 8.07733 21.5325 8.57233 22.011L8.93533 22.374L11.7733 19.536C12.2518 19.0575 13.0273 19.0575 13.5223 19.536C14.0008 20.0145 14.0008 20.8065 13.5223 21.285ZM13.5223 9.735L9.80983 13.4475C9.56233 13.695 9.24883 13.8105 8.93533 13.8105C8.62183 13.8105 8.29183 13.695 8.06083 13.4475L6.82333 12.21C6.32833 11.7315 6.32833 10.9395 6.82333 10.461C7.30183 9.9825 8.07733 9.9825 8.57233 10.461L8.93533 10.824L11.7733 7.986C12.2518 7.5075 13.0273 7.5075 13.5223 7.986C14.0008 8.4645 14.0008 9.2565 13.5223 9.735ZM26.0458 24.123H17.3833C16.7068 24.123 16.1458 23.562 16.1458 22.8855C16.1458 22.209 16.7068 21.648 17.3833 21.648H26.0458C26.7388 21.648 27.2833 22.209 27.2833 22.8855C27.2833 23.562 26.7388 24.123 26.0458 24.123ZM26.0458 12.573H17.3833C16.7068 12.573 16.1458 12.012 16.1458 11.3355C16.1458 10.659 16.7068 10.098 17.3833 10.098H26.0458C26.7388 10.098 27.2833 10.659 27.2833 11.3355C27.2833 12.012 26.7388 12.573 26.0458 12.573Z" fill="#0588BF"></path>
</svg>
