<?xml version="1.0" encoding="UTF-8"?>
<svg xmlns="http://www.w3.org/2000/svg" width="48" height="48" viewBox="0 0 48 48" fill="none">
  <path d="M47.057 20.6228L41.2615 18.923C40.8966 17.6805 40.4103 16.4907 39.8004 15.3755L42.6918 10.0842C42.9335 9.52039 42.8075 8.86633 42.3737 8.43256L39.5673 5.6261C39.1337 5.1925 38.4796 5.06653 37.9158 5.30804L32.6245 8.19946C31.5093 7.58954 30.3195 7.10339 29.077 6.73846L27.3772 0.94281C27.1494 0.373352 26.5977 0 25.9845 0H22.0155C21.4023 0 20.8506 0.373352 20.6228 0.94281L18.923 6.73846C17.6805 7.10339 16.4907 7.58954 15.3755 8.19946L10.0842 5.30804C9.52039 5.06653 8.86633 5.1925 8.43274 5.6261L5.62628 8.43256C5.1925 8.86633 5.06653 9.52039 5.30823 10.0842L8.19965 15.3755C7.58972 16.4907 7.10339 17.6805 6.73846 18.923L0.942993 20.6228C0.373352 20.8506 0 21.4021 0 22.0155V25.9843C0 26.5977 0.373352 27.1494 0.942993 27.3772L6.73846 29.077C7.10339 30.3195 7.58972 31.5093 8.19965 32.6245L5.30823 37.9158C5.06653 38.4796 5.1925 39.1337 5.62628 39.5673L8.43274 42.3737C8.86633 42.8075 9.52039 42.9335 10.0842 42.6918L15.3755 39.8004C16.4907 40.4103 17.6805 40.8966 18.923 41.2615L20.6228 47.057C20.8506 47.6265 21.4023 48 22.0155 48H25.9845C26.5977 48 27.1494 47.6265 27.3772 47.057L29.077 41.2615C30.3195 40.8966 31.5093 40.4103 32.6245 39.8004L37.9158 42.6918C38.4796 42.9335 39.1337 42.8075 39.5673 42.3737L42.3737 39.5673C42.8075 39.1337 42.9335 38.4796 42.6918 37.9158L39.8004 32.6245C40.4103 31.5093 40.8966 30.3195 41.2615 29.077L47.057 27.3772C47.6266 27.1494 48 26.5977 48 25.9843V22.0155C48 21.4021 47.6266 20.8506 47.057 20.6228ZM24 33C19.0294 33 15 28.9706 15 24C15 19.0294 19.0294 15 24 15C28.9706 15 33 19.0294 33 24C33 28.9706 28.9706 33 24 33Z" fill="#0588BF"></path>
  <path d="M24 30C27.3137 30 30 27.3137 30 24C30 20.6863 27.3137 18 24 18C20.6863 18 18 20.6863 18 24C18 27.3137 20.6863 30 24 30Z" fill="#0588BF"></path>
</svg>
