<?xml version="1.0" encoding="UTF-8"?>
<svg xmlns="http://www.w3.org/2000/svg" width="44" height="26" viewBox="0 0 44 26" fill="none">
  <path d="M43.9339 26H0.0661371C-0.610359 17.1305 3.95645 8.8192 11.3081 4.6124L12.8572 17.7181C12.9691 18.6697 13.8766 19.3631 14.8812 19.2487C15.8895 19.1412 16.6137 18.2849 16.5 17.3333L14.6777 1.92053C14.6245 1.4352 14.7914 0.948134 15.1342 0.589334C15.4935 0.214934 16.0069 0 16.5495 0H27.4505C27.9913 0 28.5065 0.214934 28.864 0.589334C29.2086 0.949867 29.3755 1.42827 29.3241 1.89107L27.5 17.3333C27.3863 18.2849 28.1105 19.1412 29.1188 19.2469C30.1161 19.3579 31.0309 18.6732 31.1428 17.7164L32.6919 4.61067C40.0436 8.8192 44.6104 17.1305 43.9339 26Z" fill="#0588BF"></path>
</svg>
