<?xml version="1.0" encoding="UTF-8"?>
<svg xmlns="http://www.w3.org/2000/svg" width="36" height="39" viewBox="0 0 36 39" fill="none">
  <path d="M18 39C21.8417 35.1583 27.0522 33 32.4853 33H36V0H32.4853C27.0522 0 21.8417 2.15826 18 6C14.1583 2.15826 8.94781 0 3.51471 0H0V33H3.51471C8.94781 33 14.1583 35.1583 18 39ZM7.5 9C10.6172 9 15.4102 10.7446 18 13.7065C20.5898 10.7446 25.3828 9 28.5 9C29.3291 9 30 9.6709 30 10.5C30 11.3291 29.3291 12 28.5 12C25.6904 12 20.5166 14.1665 19.3975 17.0435C19.1748 17.6206 18.6182 18 18 18C17.3818 18 16.8252 17.6206 16.6025 17.0435C15.4834 14.1665 10.3096 12 7.5 12C6.6709 12 6 11.3291 6 10.5C6 9.6709 6.6709 9 7.5 9ZM7.5 21C10.6172 21 15.4102 22.7446 18 25.7065C20.5898 22.7446 25.3828 21 28.5 21C29.3291 21 30 21.6709 30 22.5C30 23.3291 29.3291 24 28.5 24C25.6904 24 20.5166 26.1665 19.3975 29.0435C19.1748 29.6206 18.6182 30 18 30C17.3818 30 16.8252 29.6206 16.6025 29.0435C15.4834 26.1665 10.3096 24 7.5 24C6.6709 24 6 23.3291 6 22.5C6 21.6709 6.6709 21 7.5 21Z" fill="#0588BF"></path>
</svg>
