<?xml version="1.0" encoding="UTF-8"?>
<svg xmlns="http://www.w3.org/2000/svg" width="37" height="42" viewBox="0 0 37 42" fill="none">
  <path d="M36.2805 7.10587C36.2112 7.04805 36.1307 7.00485 36.0438 6.97892C35.9569 6.95299 35.8656 6.94488 35.7755 6.9551C25.3617 8.27926 19.0749 0.327762 19.0217 0.255654C18.9605 0.177194 18.8821 0.113432 18.7923 0.0691545C18.7025 0.0248768 18.6037 0.00123376 18.5034 0C18.4041 0.00221259 18.3066 0.0263245 18.2181 0.0705648C18.1295 0.114805 18.0522 0.17805 17.9916 0.255654C17.9318 0.327762 11.6782 8.28581 1.22461 6.9551C1.13445 6.94488 1.04312 6.95299 0.956252 6.97892C0.869387 7.00485 0.788827 7.04805 0.719538 7.10587C0.651516 7.16641 0.596921 7.24018 0.55918 7.32253C0.52144 7.40488 0.50137 7.49404 0.500231 7.5844V21.3963C0.478552 25.5694 1.98404 29.6101 4.74017 32.7762C8.063 36.552 12.602 39.6329 18.2575 41.9535C18.4154 42.0155 18.5913 42.0155 18.7492 41.9535C24.4047 39.646 28.957 36.5651 32.2665 32.7762C35.0154 29.6192 36.5183 25.5905 36.4998 21.4291V7.5844C36.4987 7.49404 36.4786 7.40488 36.4409 7.32253C36.4031 7.24018 36.3485 7.16641 36.2805 7.10587ZM24.3515 22.2878C24.3515 22.4616 24.2815 22.6284 24.1569 22.7513C24.0323 22.8742 23.8632 22.9433 23.687 22.9433H20.4971V26.0964C20.4971 26.2702 20.427 26.437 20.3024 26.5599C20.1778 26.6828 20.0087 26.7519 19.8325 26.7519H17.1742C16.998 26.7519 16.8289 26.6828 16.7043 26.5599C16.5797 26.437 16.5097 26.2702 16.5097 26.0964V22.9433H13.3064C13.1302 22.9433 12.9611 22.8742 12.8365 22.7513C12.7119 22.6284 12.6419 22.4616 12.6419 22.2878V19.6657C12.6419 19.4918 12.7119 19.3251 12.8365 19.2022C12.9611 19.0792 13.1302 19.0102 13.3064 19.0102H16.5097V15.8505C16.5097 15.6767 16.5797 15.51 16.7043 15.387C16.8289 15.2641 16.998 15.195 17.1742 15.195H19.8325C20.0087 15.195 20.1778 15.2641 20.3024 15.387C20.427 15.51 20.4971 15.6767 20.4971 15.8505V19.0102H23.7003C23.8765 19.0102 24.0456 19.0792 24.1702 19.2022C24.2948 19.3251 24.3648 19.4918 24.3648 19.6657L24.3515 22.2878Z" fill="#0588BF"></path>
</svg>
