<?xml version="1.0" encoding="UTF-8"?>
<svg xmlns="http://www.w3.org/2000/svg" width="16" height="11" viewBox="0 0 16 11" fill="none">
  <path d="M15.1367 2.16797C15.4648 3.31641 15.4648 5.77734 15.4648 5.77734C15.4648 5.77734 15.4648 8.21094 15.1367 9.38672C14.9727 10.043 14.4531 10.5352 13.8242 10.6992C12.6484 11 8 11 8 11C8 11 3.32422 11 2.14844 10.6992C1.51953 10.5352 1 10.043 0.835938 9.38672C0.507812 8.21094 0.507812 5.77734 0.507812 5.77734C0.507812 5.77734 0.507812 3.31641 0.835938 2.16797C1 1.51172 1.51953 0.992188 2.14844 0.828125C3.32422 0.5 8 0.5 8 0.5C8 0.5 12.6484 0.5 13.8242 0.828125C14.4531 0.992188 14.9727 1.51172 15.1367 2.16797ZM6.46875 7.99219L10.3516 5.77734L6.46875 3.5625V7.99219Z" fill="white"></path>
</svg>
