<svg width="700" height="700" viewBox="0 0 700 700" fill="none" xmlns="http://www.w3.org/2000/svg">
<rect width="700" height="700" fill="#424B5A"/>
<g opacity="0.4">
<mask id="mask0_783_25339" style="mask-type:luminance" maskUnits="userSpaceOnUse" x="0" y="175" width="700" height="525">
<rect y="175" width="700" height="525" fill="white"/>
</mask>
<g mask="url(#mask0_783_25339)">
<path fill-rule="evenodd" clip-rule="evenodd" d="M276.05 373.095C315.824 373.095 348.177 338.953 348.177 296.993C348.177 255.006 315.824 220.864 276.05 220.864C236.276 220.864 203.923 255.006 203.923 296.979C203.923 338.953 236.276 373.095 276.05 373.095ZM276.05 248.2C301.539 248.2 322.274 270.095 322.274 296.979C322.274 323.864 301.539 345.759 276.05 345.759C250.561 345.759 229.826 323.877 229.826 296.993C229.826 270.109 250.561 248.2 276.05 248.2ZM12.1846 739.67C9.7324 741.944 6.68649 743.061 3.6664 743.061C0.0913247 743.061 -3.47084 741.509 -6.02631 738.444C-10.7371 732.792 -10.2209 724.184 -4.86473 719.213L384.472 342.302C389.583 337.562 397.301 337.821 402.128 342.901L463.343 407.499L589.748 261.4C592.059 258.731 595.285 257.138 598.706 256.974C602.1 256.892 605.469 258.105 607.998 260.542L762.875 410.359C768.141 415.439 768.489 424.061 763.675 429.604C758.861 435.147 750.691 435.528 745.438 430.448L600.099 289.852L481.606 426.785L543.647 492.254C548.693 497.58 548.693 506.187 543.647 511.513C538.6 516.838 530.444 516.838 525.397 511.513L392.436 371.216L12.1846 739.67Z" fill="#DFE7EB"/>
</g>
</g>
</svg>
