<?xml version="1.0" encoding="utf-8"?>
<!-- Generator: Adobe Illustrator 16.0.0, SVG Export Plug-In . SVG Version: 6.00 Build 0)  -->
<!DOCTYPE svg PUBLIC "-//W3C//DTD SVG 1.1//EN" "http://www.w3.org/Graphics/SVG/1.1/DTD/svg11.dtd">
<svg version="1.1" id="_x32_" xmlns="http://www.w3.org/2000/svg" xmlns:xlink="http://www.w3.org/1999/xlink" x="0px" y="0px"
	 width="799.998px" height="627.932px" viewBox="0 86.034 799.998 627.932" enable-background="new 0 86.034 799.998 627.932"
	 xml:space="preserve">
<g>
	<path d="M797.935,175.43c-3.606-18.166-11.661-34.789-22.909-48.522c-2.372-2.992-4.851-5.672-7.536-8.352
		c-19.93-20.028-47.901-32.522-78.46-32.522H110.97c-30.558,0-58.43,12.494-78.453,32.522c-2.68,2.68-5.158,5.359-7.536,8.352
		c-11.255,13.731-19.31,30.356-22.816,48.522C0.725,182.44,0,189.686,0,197.011V603c0,15.575,3.303,30.547,9.194,44.067
		c5.464,12.906,13.52,24.584,23.322,34.376c2.484,2.479,4.952,4.757,7.644,7.022c19.197,15.898,43.977,25.5,70.811,25.5h578.059
		c26.844,0,51.731-9.602,70.817-25.601c2.685-2.165,5.164-4.443,7.643-6.922c9.797-9.792,17.852-21.47,23.428-34.376v-0.101
		c5.89-13.52,9.081-28.392,9.081-43.965V197.011C800,189.686,799.286,182.44,797.935,175.43z M72.67,158.705
		c9.914-9.903,23.228-15.898,38.3-15.898h578.059c15.072,0,28.504,5.996,38.301,15.898c1.753,1.764,3.404,3.73,4.862,5.683
		L429.213,428.442c-8.356,7.323-18.679,10.94-29.213,10.94c-10.428,0-20.744-3.617-29.211-10.94L67.925,164.275
		C69.266,162.322,70.917,160.469,72.67,158.705z M56.772,603V223.023l219.256,191.273L56.883,605.367
		C56.772,604.643,56.772,603.826,56.772,603z M689.029,657.183H110.97c-9.814,0-18.997-2.579-26.834-7.112l231.216-201.498
		l21.586,18.777c18.064,15.697,40.669,23.647,63.063,23.647c22.51,0,45.112-7.95,63.175-23.647l21.575-18.777L715.875,650.07
		C708.026,654.604,698.844,657.183,689.029,657.183z M743.229,603c0,0.826,0,1.643-0.106,2.367L523.979,414.408l219.25-191.283V603z
		"/>
</g>
</svg>
