<?xml version="1.0" encoding="utf-8"?>
<!-- Generator: Adobe Illustrator 16.0.0, SVG Export Plug-In . SVG Version: 6.00 Build 0)  -->
<!DOCTYPE svg PUBLIC "-//W3C//DTD SVG 1.1//EN" "http://www.w3.org/Graphics/SVG/1.1/DTD/svg11.dtd">
<svg version="1.1" id="Layer_1" xmlns="http://www.w3.org/2000/svg" xmlns:xlink="http://www.w3.org/1999/xlink" x="0px" y="0px"
	 width="10px" height="27px" viewBox="0 0 10 27" enable-background="new 0 0 10 27" xml:space="preserve">
<path fill-rule="evenodd" clip-rule="evenodd" fill="#BABEC6" d="M0,13.71v-0.46L8.38,0l1.03,0.53C9.81,0.75,10,1.03,10,1.41
	c0,0.28-0.08,0.55-0.25,0.8L3.34,12.49c-0.12,0.26-0.26,0.47-0.39,0.62c-0.12,0.16-0.25,0.28-0.37,0.39
	c0.12,0.1,0.25,0.22,0.37,0.38c0.13,0.15,0.27,0.36,0.39,0.61L9.75,24.8C9.92,25.05,10,25.31,10,25.56c0,0.41-0.19,0.71-0.59,0.91
	L8.38,27L0,13.71z"/>
</svg>
