<?xml version="1.0" encoding="utf-8"?>
<!-- Generator: Adobe Illustrator 16.0.0, SVG Export Plug-In . SVG Version: 6.00 Build 0)  -->
<!DOCTYPE svg PUBLIC "-//W3C//DTD SVG 1.1//EN" "http://www.w3.org/Graphics/SVG/1.1/DTD/svg11.dtd">
<svg version="1.1" id="Layer_1" xmlns="http://www.w3.org/2000/svg" xmlns:xlink="http://www.w3.org/1999/xlink" x="0px" y="0px"
	 width="10px" height="27px" viewBox="0 0 10 27" enable-background="new 0 0 10 27" xml:space="preserve">
<path fill-rule="evenodd" clip-rule="evenodd" fill="#BABEC6" d="M10,13.71v-0.46L1.63,0L0.59,0.53C0.19,0.75,0,1.03,0,1.41
	c0,0.28,0.08,0.55,0.25,0.8l6.41,10.28c0.12,0.26,0.26,0.47,0.39,0.62c0.12,0.16,0.25,0.28,0.37,0.39c-0.12,0.1-0.25,0.22-0.37,0.38
	c-0.13,0.15-0.27,0.36-0.39,0.61L0.25,24.8C0.08,25.05,0,25.31,0,25.56c0,0.41,0.19,0.71,0.59,0.91L1.63,27L10,13.71z"/>
</svg>
