<?xml version="1.0" encoding="utf-8"?>
<!-- Generator: Adobe Illustrator 16.0.0, SVG Export Plug-In . SVG Version: 6.00 Build 0)  -->
<!DOCTYPE svg PUBLIC "-//W3C//DTD SVG 1.1//EN" "http://www.w3.org/Graphics/SVG/1.1/DTD/svg11.dtd">
<svg version="1.1" id="Layer_1" xmlns="http://www.w3.org/2000/svg" xmlns:xlink="http://www.w3.org/1999/xlink" x="0px" y="0px"
	 width="18px" height="22px" viewBox="0 0 18 22" enable-background="new 0 0 18 22" xml:space="preserve">
<path fill="#424B5A" d="M18,9c0,7-9,13-9,13S0,16,0,9c0-2.387,0.948-4.676,2.636-6.364C4.324,0.948,6.613,0,9,0
	s4.676,0.948,6.363,2.636C17.052,4.324,18,6.613,18,9z"/>
<path fill="#FFFFFF" d="M9,12c1.656,0,3-1.343,3-3s-1.344-3-3-3C7.343,6,6,7.343,6,9S7.343,12,9,12z"/>
</svg>
