<svg width="53" height="53" viewBox="0 0 53 53" fill="none" xmlns="http://www.w3.org/2000/svg">
<path fill-rule="evenodd" clip-rule="evenodd" d="M35.6833 27.05C36.2167 26.65 36.2167 25.85 35.6833 25.45L22.6 15.6375C21.9408 15.1431 21 15.6135 21 16.4375V36.0625C21 36.8865 21.9408 37.3569 22.6 36.8625L35.6833 27.05ZM0 26.25C0 40.74 11.76 52.5 26.25 52.5C40.74 52.5 52.5 40.74 52.5 26.25C52.5 11.76 40.74 0 26.25 0C11.76 0 0 11.76 0 26.25ZM5.25 26.25C5.25 14.6738 14.6738 5.25 26.25 5.25C37.8262 5.25 47.25 14.6738 47.25 26.25C47.25 37.8262 37.8262 47.25 26.25 47.25C14.6738 47.25 5.25 37.8262 5.25 26.25Z" fill="#424B5A"/>
</svg>
