<?xml version="1.0" encoding="utf-8"?>
<!-- Generator: Adobe Illustrator 16.0.0, SVG Export Plug-In . SVG Version: 6.00 Build 0)  -->
<!DOCTYPE svg PUBLIC "-//W3C//DTD SVG 1.1//EN" "http://www.w3.org/Graphics/SVG/1.1/DTD/svg11.dtd">
<svg version="1.1" id="_x32_" xmlns="http://www.w3.org/2000/svg" xmlns:xlink="http://www.w3.org/1999/xlink" x="0px" y="0px"
	 width="97.498px" height="64.012px" viewBox="702.143 695.789 97.498 64.012"
	 enable-background="new 702.143 695.789 97.498 64.012" xml:space="preserve">
<g>
	<path fill="#C2D1D9" d="M777.019,696.123c12.565,0.08,22.693,9.136,22.622,20.229c-0.071,11.089-10.313,20.015-22.879,19.935
		c0,0,0.063,7.46,6.861,18.241c0.749,2.157-0.624,4.439-3.068,5.094c-1.734,0.469-3.552-0.01-4.722-1.104
		c-15.693-15.343-21.761-33.321-21.702-42.456C754.202,704.968,764.444,696.042,777.019,696.123z"/>
	<path fill="#C2D1D9" d="M725.03,695.79c12.565,0.08,22.693,9.138,22.622,20.229c-0.071,11.09-10.313,20.015-22.879,19.935
		c0,0,0.063,7.461,6.861,18.242c0.749,2.156-0.625,4.438-3.068,5.093c-1.734,0.469-3.552-0.01-4.722-1.104
		c-15.693-15.344-21.761-33.322-21.702-42.456C702.214,704.637,712.456,695.711,725.03,695.79z"/>
</g>
</svg>
