<?xml version="1.0" encoding="utf-8"?>
<!-- Generator: Adobe Illustrator 16.0.0, SVG Export Plug-In . SVG Version: 6.00 Build 0)  -->
<!DOCTYPE svg PUBLIC "-//W3C//DTD SVG 1.1//EN" "http://www.w3.org/Graphics/SVG/1.1/DTD/svg11.dtd">
<svg version="1.1" id="Layer_1" xmlns="http://www.w3.org/2000/svg" xmlns:xlink="http://www.w3.org/1999/xlink" x="0px" y="0px"
	 width="97.811px" height="90.405px" viewBox="0 0 97.811 90.405" enable-background="new 0 0 97.811 90.405" xml:space="preserve">
<g>
	<path fill-rule="evenodd" clip-rule="evenodd" d="M0,87.667c0-19.486,0-38.972,0-58.458c0.791-1.625,2.091-2.116,3.873-2.114
		c30.022,0.039,60.044,0.039,90.067,0c1.781-0.002,3.08,0.492,3.871,2.114c0,18.531,0,37.062,0,55.592
		c-0.261-0.226-0.537-0.437-0.78-0.681C85.842,72.938,74.657,61.751,63.47,50.567c-1.708-1.708-3.217-1.702-4.928,0.008
		c-6.325,6.324-12.651,12.646-18.965,18.98c-0.265,0.266-0.417,0.644-0.66,1.029c-2.955-2.961-5.649-5.664-8.348-8.362
		c-1.76-1.76-3.244-1.758-5-0.002C17.33,70.458,9.094,78.696,0.854,86.93C0.588,87.195,0.285,87.422,0,87.667z M27.313,47.26
		c3.939,0.011,7.164-3.17,7.216-7.121c0.053-3.941-3.22-7.251-7.181-7.264c-3.964-0.012-7.234,3.265-7.211,7.228
		C20.16,44.049,23.367,47.249,27.313,47.26z"/>
	<path fill-rule="evenodd" clip-rule="evenodd" d="M97.811,16.34c-1.191,1.259-2.334,2.57-3.589,3.764
		c-0.971,0.922-2.003,0.825-3.04-0.18c-1.214-1.178-2.376-2.41-3.723-3.783c-1.216,1.239-2.341,2.416-3.5,3.558
		c-1.4,1.38-2.333,1.364-3.745-0.019c-0.751-0.737-1.504-1.474-2.233-2.234c-1.172-1.223-1.182-2.253,0.002-3.452
		c1.157-1.172,2.358-2.301,3.76-3.663c-1.264-1.205-2.462-2.309-3.617-3.456c-1.392-1.383-1.379-2.352-0.008-3.747
		c0.674-0.686,1.356-1.364,2.041-2.04c1.452-1.433,2.438-1.455,3.856-0.037c1.13,1.129,2.223,2.297,3.489,3.611
		c1.291-1.362,2.427-2.614,3.622-3.809c1.122-1.122,2.226-1.138,3.355-0.043c1.143,1.108,2.223,2.281,3.33,3.425
		c0,0.458,0,0.917,0,1.375c-1.464,1.593-2.929,3.185-4.71,5.121c1.603,1.44,3.156,2.836,4.71,4.232
		C97.811,15.423,97.811,15.881,97.811,16.34z"/>
	<path fill-rule="evenodd" clip-rule="evenodd" d="M60.991,56.521c11.222,11.221,22.512,22.51,33.84,33.836
		c-0.284,0.015-0.614,0.045-0.944,0.045c-11.396,0.003-22.792,0.008-34.188-0.019c-0.483-0.001-1.1-0.175-1.427-0.498
		c-5.025-4.968-10.013-9.975-15.008-14.974c-0.133-0.133-0.252-0.279-0.313-0.348C49.019,68.496,55.059,62.455,60.991,56.521z"/>
	<path fill-rule="evenodd" clip-rule="evenodd" d="M50.135,90.345c-14.653,0-29.485,0-44.212,0
		c7.388-7.387,14.799-14.797,22.106-22.104C35.319,75.53,42.75,82.961,50.135,90.345z"/>
</g>
</svg>
