<?xml version="1.0" encoding="utf-8"?>
<!-- Generator: Adobe Illustrator 16.0.0, SVG Export Plug-In . SVG Version: 6.00 Build 0)  -->
<!DOCTYPE svg PUBLIC "-//W3C//DTD SVG 1.1//EN" "http://www.w3.org/Graphics/SVG/1.1/DTD/svg11.dtd">
<svg version="1.1" id="Layer_1" xmlns="http://www.w3.org/2000/svg" xmlns:xlink="http://www.w3.org/1999/xlink" x="0px" y="0px"
	 width="152.5px" height="152.5px" viewBox="354 162 152.5 152.5" enable-background="new 354 162 152.5 152.5"
	 xml:space="preserve">
<g>
	<rect x="398" y="201" fill="#FFFFFF" width="73" height="73.5"/>
	<g>
		<path fill="#00ADEF" d="M430.25,162c-42.143,0-76.25,34.103-76.25,76.25c0,42.143,34.103,76.25,76.25,76.25
			c42.143,0,76.25-34.103,76.25-76.25C506.5,196.107,472.396,162,430.25,162z M457.723,246.714l-35.829,20.703
			c-3.022,1.747-6.749,1.75-9.777,0.003c-3.025-1.746-4.89-4.974-4.89-8.467v-41.406c0-3.493,1.864-6.721,4.89-8.467
			c1.512-0.873,3.199-1.309,4.886-1.309c1.689,0,3.379,0.437,4.892,1.311l35.83,20.703c3.022,1.747,4.885,4.973,4.885,8.464
			C462.608,241.741,460.746,244.968,457.723,246.714z"/>
	</g>
</g>
</svg>
