<?xml version="1.0" encoding="utf-8"?>
<!-- Generator: Adobe Illustrator 16.0.0, SVG Export Plug-In . SVG Version: 6.00 Build 0)  -->
<!DOCTYPE svg PUBLIC "-//W3C//DTD SVG 1.1//EN" "http://www.w3.org/Graphics/SVG/1.1/DTD/svg11.dtd">
<svg version="1.1" id="Layer_1" xmlns="http://www.w3.org/2000/svg" xmlns:xlink="http://www.w3.org/1999/xlink" x="0px" y="0px"
	 width="131.111px" height="126.625px" viewBox="0 12 131.111 126.625" enable-background="new 0 12 131.111 126.625"
	 xml:space="preserve">
<g>
	<path d="M13.111,138.625H118c7.211,0,13.111-5.9,13.111-13.111V55.685c0-7.211-5.9-13.111-13.111-13.111H13.111
		C5.9,42.574,0,48.474,0,55.685v69.829C0,132.725,5.9,138.625,13.111,138.625z M5.122,55.685c0-4.404,3.585-7.989,7.99-7.989H118
		c4.405,0,7.99,3.585,7.99,7.989v69.829c0,4.405-3.585,7.99-7.99,7.99H13.111c-4.405,0-7.99-3.585-7.99-7.99V55.685z"/>
	<polygon points="53.736,59.446 53.736,99.058 88.041,79.252 	"/>
</g>
<g>
	<path d="M119.967,116.502H52.031c0.246,0.815,0.416,1.664,0.416,2.561c0,0.897-0.172,1.745-0.418,2.561h67.938V116.502z"/>
	<path d="M34.958,116.502H11.8v5.122h23.158c-0.246-0.817-0.418-1.666-0.418-2.561C34.542,118.167,34.712,117.319,34.958,116.502z"
		/>
</g>
<path fill="#DB2B42" d="M52.101,116.563c-1.106-3.688-4.489-6.394-8.537-6.394c-4.048,0-7.431,2.704-8.537,6.394
	c-0.246,0.815-0.416,1.664-0.416,2.561c0,0.897,0.172,1.746,0.418,2.561c1.108,3.688,4.488,6.392,8.537,6.392
	c4.048,0,7.428-2.704,8.537-6.392c0.246-0.817,0.418-1.666,0.418-2.561C52.516,118.229,52.344,117.381,52.101,116.563z"/>
<path fill-rule="evenodd" clip-rule="evenodd" d="M124.36,30.125c-1.321,1.397-2.589,2.851-3.979,4.175
	c-1.077,1.022-2.223,0.916-3.373-0.199c-1.347-1.307-2.636-2.673-4.129-4.196c-1.349,1.374-2.597,2.68-3.883,3.946
	c-1.553,1.531-2.588,1.514-4.154-0.021c-0.833-0.818-1.669-1.636-2.477-2.479c-1.299-1.357-1.311-2.5,0.002-3.83
	c1.284-1.3,2.616-2.552,4.171-4.062c-1.402-1.336-2.731-2.561-4.012-3.833c-1.543-1.534-1.529-2.608-0.009-4.155
	c0.748-0.761,1.505-1.514,2.264-2.263c1.61-1.589,2.704-1.613,4.277-0.041c1.254,1.253,2.466,2.548,3.87,4.005
	c1.432-1.511,2.693-2.899,4.017-4.225c1.245-1.245,2.47-1.262,3.722-0.048c1.268,1.229,2.465,2.53,3.694,3.799
	c0,0.509,0,1.017,0,1.526c-1.623,1.767-3.248,3.532-5.223,5.68c1.776,1.598,3.5,3.147,5.223,4.695
	C124.36,29.107,124.36,29.616,124.36,30.125z"/>
</svg>
