<?xml version="1.0" encoding="utf-8"?>
<!-- Generator: Adobe Illustrator 16.0.0, SVG Export Plug-In . SVG Version: 6.00 Build 0)  -->
<!DOCTYPE svg PUBLIC "-//W3C//DTD SVG 1.1//EN" "http://www.w3.org/Graphics/SVG/1.1/DTD/svg11.dtd">
<svg version="1.1" id="Layer_1" xmlns="http://www.w3.org/2000/svg" xmlns:xlink="http://www.w3.org/1999/xlink" x="0px" y="0px"
	 width="26px" height="46px" viewBox="12 2 26 46" enable-background="new 12 2 26 46" xml:space="preserve">
<g>
	<g transform="scale(5.12,5.12)">
		<path fill="#1976D2" d="M6.25,2.148h0.977c0.108,0,0.195-0.088,0.195-0.195V0.637c0-0.102-0.079-0.188-0.181-0.195
			C6.931,0.42,6.323,0.391,5.887,0.391c-1.199,0-1.981,0.719-1.981,2.025v1.295H2.539c-0.108,0-0.195,0.088-0.195,0.195v1.367
			c0,0.108,0.088,0.195,0.195,0.195h1.367V9.18c0,0.108,0.088,0.195,0.195,0.195h1.367c0.108,0,0.195-0.088,0.195-0.195V5.469h1.411
			c0.1,0,0.183-0.075,0.194-0.174l0.152-1.367c0.013-0.116-0.078-0.217-0.194-0.217H5.664V2.734C5.664,2.411,5.926,2.148,6.25,2.148
			z"/>
	</g>
</g>
</svg>
