<?xml version="1.0" encoding="utf-8"?>
<!-- Generator: Adobe Illustrator 16.0.0, SVG Export Plug-In . SVG Version: 6.00 Build 0)  -->
<!DOCTYPE svg PUBLIC "-//W3C//DTD SVG 1.1//EN" "http://www.w3.org/Graphics/SVG/1.1/DTD/svg11.dtd">
<svg version="1.1" id="Layer_1" xmlns="http://www.w3.org/2000/svg" xmlns:xlink="http://www.w3.org/1999/xlink" x="0px" y="0px"
	 width="49.778px" height="35.556px" viewBox="7.111 14.222 49.778 35.556" enable-background="new 7.111 14.222 49.778 35.556"
	 xml:space="preserve">
<g transform="">
	<g>
		<g transform="scale(3.55556,3.55556)">
			<path fill="#F4000E" d="M15.279,4.714C15.916,5.376,16,6.427,16,9c0,2.573-0.083,3.624-0.721,4.286C14.641,13.948,13.977,14,9,14
				c-4.977,0-5.641-0.052-6.279-0.714C2.084,12.624,2,11.573,2,9c0-2.573,0.083-3.624,0.721-4.286S4.023,4,9,4
				C13.977,4,14.641,4.052,15.279,4.714z M7.866,11.119l3.401-2.011l-3.401-1.98V11.119z"/>
		</g>
	</g>
</g>
</svg>
