<?xml version="1.0" standalone="no"?>
<!DOCTYPE svg PUBLIC "-//W3C//DTD SVG 20010904//EN"
 "http://www.w3.org/TR/2001/REC-SVG-20010904/DTD/svg10.dtd">
<svg version="1.0" xmlns="http://www.w3.org/2000/svg"
 width="330.000000pt" height="330.000000pt" viewBox="0 0 330.000000 330.000000"
 preserveAspectRatio="xMidYMid meet">
<metadata>
Created by potrace 1.11, written by Peter Selinger 2001-2013
</metadata>
<g transform="translate(0.000000,330.000000) scale(0.100000,-0.100000)"
fill="#000000" stroke="none">
<path d="M501 3222 c-76 -165 -135 -400 -157 -622 -3 -30 -9 -77 -13 -105 -13
-89 -5 -348 14 -435 2 -13 7 -42 11 -65 21 -144 110 -293 229 -380 22 -17 42
-32 45 -35 3 -3 21 -17 42 -32 l36 -28 -58 -117 c-61 -124 -94 -219 -108 -316
-9 -59 -8 -241 1 -307 3 -19 8 -57 12 -85 4 -27 8 -57 10 -65 1 -8 6 -40 10
-70 4 -30 9 -64 11 -75 5 -27 53 -336 61 -388 8 -61 20 -87 40 -88 10 -1 80
-2 156 -3 98 -1 142 2 149 11 10 13 7 55 -12 138 -7 28 -13 59 -15 70 -1 11
-13 65 -25 120 -12 55 -24 111 -27 125 -2 14 -8 41 -13 60 -12 47 -22 125 -14
117 3 -3 32 -63 64 -134 31 -70 74 -164 94 -207 20 -44 46 -101 58 -128 11
-26 23 -48 27 -48 3 0 67 121 141 268 l135 267 3 -65 c1 -42 -4 -88 -16 -130
-11 -36 -35 -119 -55 -185 -37 -129 -53 -241 -37 -265 7 -12 36 -15 152 -15
l142 0 52 125 c54 129 110 292 118 345 2 17 5 61 5 99 1 41 5 66 10 60 19 -21
44 -121 43 -178 -1 -85 -4 -104 -78 -385 -7 -30 -11 -57 -8 -60 10 -11 561 1
679 15 312 35 543 253 571 537 25 254 -162 507 -426 577 -68 19 -208 17 -246
-3 -45 -23 -69 -86 -50 -130 24 -58 49 -71 139 -75 98 -3 146 -15 200 -49 177
-111 214 -323 86 -484 -85 -107 -231 -160 -479 -171 l-55 -3 1 35 c1 19 5 60
9 90 9 65 9 189 0 249 -20 134 -82 253 -187 359 -57 58 -68 75 -81 127 -9 33
-27 102 -40 152 l-25 93 37 0 c90 0 217 51 306 124 133 107 288 349 374 583
49 132 93 327 106 463 3 36 8 82 10 103 4 46 -20 77 -62 78 -16 0 -37 3 -48 5
-11 3 -81 5 -155 6 -153 1 -262 -16 -407 -64 l-92 -30 -88 41 c-224 103 -379
141 -578 144 -71 1 -192 -12 -223 -24 -15 -6 -29 -10 -32 -10 -50 3 -237 -73
-337 -136 -33 -20 -54 -28 -54 -20 -6 47 -4 170 2 207 16 93 58 240 68 240 24
0 132 -88 193 -157 30 -34 27 -34 161 -7 48 10 87 22 87 28 0 20 -179 182
-265 240 -75 51 -267 146 -294 146 -4 0 -22 -31 -40 -68z m496 -712 c18 0 73
-50 73 -66 0 -15 -3 -15 -157 2 -35 4 -63 10 -63 14 0 25 78 62 115 55 11 -3
25 -5 32 -5z m1444 -55 c-6 -75 -49 -223 -86 -297 -53 -106 -67 -119 -84 -75
-5 12 -46 87 -90 167 -44 80 -81 150 -81 156 0 16 109 65 176 78 32 7 84 12
114 12 l55 -1 -4 -40z m-1041 -87 c19 -13 34 -27 34 -31 1 -4 -22 -21 -50 -37
l-51 -30 -23 51 c-21 43 -22 52 -10 60 25 15 66 10 100 -13z m491 -139 c30
-21 48 -47 54 -80 5 -27 -9 -24 -113 30 -94 47 -100 56 -52 74 26 10 81 -2
111 -24z m-555 -135 c20 -42 63 -76 121 -95 l41 -14 -92 -130 c-51 -71 -107
-140 -126 -152 -67 -46 -142 -17 -160 62 -5 22 -12 103 -16 180 -3 77 -8 143
-10 146 -2 3 31 5 74 5 54 -1 86 4 107 15 42 23 42 23 61 -17z"/>
</g>
</svg>
