<?xml version="1.0" encoding="utf-8"?>
<!-- Generator: Adobe Illustrator 16.0.0, SVG Export Plug-In . SVG Version: 6.00 Build 0)  -->
<!DOCTYPE svg PUBLIC "-//W3C//DTD SVG 1.1//EN" "http://www.w3.org/Graphics/SVG/1.1/DTD/svg11.dtd">
<svg version="1.1" id="Layer_1" xmlns="http://www.w3.org/2000/svg" xmlns:xlink="http://www.w3.org/1999/xlink" x="0px" y="0px"
	 width="230.403px" height="94.907px" viewBox="0 0 230.403 94.907" enable-background="new 0 0 230.403 94.907"
	 xml:space="preserve">
<g>
	<path fill-rule="evenodd" clip-rule="evenodd" fill="#333" d="M120.31,0c1.341,0.289,2.686,0.56,4.021,0.872
		c4.439,1.037,8.562,2.791,12.353,5.353c4.019,2.716,7.365,6.104,10.023,10.122c2.534,3.83,4.623,7.91,5.887,12.362
		c0.234,0.824,0.371,1.684,0.686,2.474c0.645,1.616,0.199,2.874-0.783,4.268c-4.845,6.868-9.565,13.823-14.37,20.721
		c-0.689,0.99-1.032,1.962-1.02,3.189c0.058,5.576,0.024,11.153,0.024,16.73c0,1.268,0.003,1.289,1.26,1.258
		c0.941-0.024,2.179,0.221,2.733-0.273c0.479-0.426,0.218-1.725,0.22-2.639c0.013-5.246-0.013-10.493,0.03-15.74
		c0.005-0.612,0.218-1.314,0.563-1.818c7.066-10.303,14.163-20.585,21.259-30.868c5.392-7.813,10.796-15.618,16.173-23.442
		c0.403-0.586,0.845-0.821,1.546-0.822c9.769-0.013,19.536-0.048,29.304-0.074c0.287-0.001,0.573,0.028,1.123,0.059
		c-0.612,0.965-1.113,1.783-1.643,2.582c-3.71,5.597-7.422,11.191-11.141,16.781c-4.977,7.481-9.963,14.956-14.939,22.437
		c-1.987,2.986-3.964,5.979-5.933,8.979c-0.13,0.197-0.152,0.465-0.226,0.7c0.242,0.072,0.483,0.206,0.726,0.208
		c3.432,0.023,6.863,0.011,10.295,0.05c0.917,0.01,0.897-0.549,0.896-1.175c-0.004-3.861,0.025-7.723-0.024-11.583
		c-0.012-0.952,0.258-1.238,1.226-1.234c8.844,0.035,17.688,0.033,26.531,0.001c0.901-0.003,1.127,0.295,1.118,1.146
		c-0.038,3.861,0.001,7.723-0.035,11.583c-0.009,0.934,0.292,1.279,1.256,1.266c3.266-0.048,6.533,0.001,9.8-0.035
		c0.84-0.009,1.158,0.23,1.154,1.121c-0.03,7.26-0.03,14.521,0.001,21.779c0.004,0.802-0.317,0.93-0.995,0.926
		c-3.332-0.021-6.666,0.02-9.998-0.03c-0.971-0.015-1.232,0.318-1.223,1.26c0.046,4.454,0.007,8.909,0.044,13.364
		c0.006,0.755-0.226,0.96-0.957,0.959c-9.239-0.021-18.479-0.022-27.72,0.001c-0.867,0.002-1.113-0.276-1.105-1.143
		c0.044-4.422,0.004-8.844,0.038-13.266c0.007-0.845-0.23-1.171-1.113-1.17c-13.035,0.02-26.069,0.018-39.104,0.003
		c-0.676-0.001-1.078,0.255-1.449,0.805c-1.96,2.914-4.213,5.597-6.93,7.822c-3.25,2.662-6.762,4.928-10.756,6.366
		c-8.945,3.222-18.027,3.497-27.152,1.024c-7.713-2.091-14.018-6.437-18.99-12.692c-6.322-7.952-9.111-17.192-9.915-27.169
		c-0.557-6.921-0.226-13.784,1.199-20.58c1.613-7.7,4.876-14.647,10.088-20.543c4.658-5.27,10.417-8.976,17.25-10.856
		c1.678-0.462,3.411-0.719,5.116-1.087c0.312-0.066,0.605-0.217,0.907-0.328c2.417,0,4.835,0,7.252,0C116.697,0,118.503,0,120.31,0z
		 M124.583,47.361c-0.271-3.417-0.44-6.846-0.843-10.247c-0.338-2.854-1.082-5.631-2.465-8.197c-2.106-3.91-5.893-5.625-9.745-4.358
		c-2.717,0.894-4.29,2.961-5.395,5.452c-1.271,2.865-1.871,5.904-2.169,9.003c-0.686,7.126-0.774,14.249,0.819,21.269
		c0.48,2.118,1.338,4.23,2.419,6.119c3.048,5.325,10.389,5.268,13.472,0.145c0.874-1.452,1.585-3.052,2.078-4.672
		C124.192,57.155,124.408,52.271,124.583,47.361z"/>
	<path fill-rule="evenodd" clip-rule="evenodd" fill="#333" d="M70.158,1.721C58.675,19.004,47.35,36.051,35.887,53.304
		c0.577,0.062,0.853,0.116,1.128,0.117c3.3,0.015,6.6-0.009,9.898,0.048c0.982,0.017,1.259-0.367,1.252-1.282
		c-0.031-3.86,0.011-7.721-0.036-11.581c-0.011-0.891,0.288-1.13,1.137-1.126c6.204,0.026,12.407,0.03,18.61-0.004
		c0.927-0.006,1.09,0.309,1.012,1.165c-0.653,7.144-0.324,14.243,1.191,21.262c1.121,5.191,2.982,10.111,5.836,14.614
		c0.769,1.214,1.129,2.448,1.1,3.903c-0.074,3.826-0.041,7.655-0.002,11.482c0.007,0.734-0.279,0.905-0.927,0.905
		c-9.305-0.01-18.61-0.014-27.915,0.003c-0.779,0.001-0.918-0.339-0.914-1.027c0.025-4.389,0.014-8.777,0.015-13.166
		c0.001-1.356-0.005-1.368-1.381-1.368c-14.915-0.001-29.829-0.01-44.744,0.021C0.218,77.273-0.009,77.033,0,76.116
		c0.061-5.643,0.077-11.285,0.049-16.928c-0.005-1.013,0.247-1.835,0.816-2.657c5.97-8.616,11.917-17.248,17.868-25.877
		c5.97-8.655,12.012-17.262,17.854-26.003c1.434-2.146,2.903-3.024,5.544-2.976"/>
	<path fill-rule="evenodd" clip-rule="evenodd" fill="#FFF" d="M124.583,47.361c-0.176,4.91-0.392,9.794-1.828,14.513
		c-0.493,1.62-1.204,3.22-2.078,4.672c-3.083,5.123-10.424,5.181-13.472-0.145c-1.081-1.889-1.938-4.001-2.419-6.119
		c-1.594-7.02-1.505-14.143-0.819-21.269c0.298-3.099,0.898-6.138,2.169-9.003c1.104-2.491,2.678-4.559,5.395-5.452
		c3.853-1.267,7.639,0.448,9.745,4.358c1.383,2.566,2.127,5.344,2.465,8.197C124.143,40.516,124.313,43.944,124.583,47.361z"/>
</g>
</svg>
