<?xml version="1.0" encoding="utf-8"?>
<!-- Generator: Adobe Illustrator 16.0.0, SVG Export Plug-In . SVG Version: 6.00 Build 0)  -->
<!DOCTYPE svg PUBLIC "-//W3C//DTD SVG 1.1//EN" "http://www.w3.org/Graphics/SVG/1.1/DTD/svg11.dtd">
<svg version="1.1" id="Layer_1" xmlns="http://www.w3.org/2000/svg" xmlns:xlink="http://www.w3.org/1999/xlink" x="0px" y="0px"
	 width="186.439px" height="29.5px" viewBox="0 0 186.439 29.5" enable-background="new 0 0 186.439 29.5" xml:space="preserve">
<g>
	<polygon fill="#222222" points="0,1.5 0,8.47 4.8,8.47 4.8,29.5 14.24,29.5 14.24,1.5 	"/>
	<path fill="#222222" d="M35.32,21.53l4-3.671c1.881-1.719,3.16-3.27,3.82-4.629c0.65-1.36,0.98-2.82,0.98-4.39
		c0-1.75-0.48-3.29-1.44-4.64c-0.96-1.34-2.29-2.37-4-3.11C36.97,0.37,35.01,0,32.79,0c-2.9,0-5.391,0.55-7.431,1.64
		C23.29,2.73,21.75,4.2,20.68,6.08l7.11,3.62c0.41-0.86,0.97-1.53,1.72-2.01c0.75-0.47,1.55-0.72,2.41-0.72
		c0.87,0,1.55,0.2,2.01,0.61c0.47,0.4,0.71,0.97,0.71,1.69c0,0.59-0.16,1.18-0.439,1.79c-0.301,0.61-0.891,1.35-1.771,2.21
		l-10.11,9.76v5.47h22.44v-6.97H35.32z"/>
	<polygon fill="#222222" points="50.44,1.5 50.44,12.64 58.24,12.64 58.24,8.47 63.65,8.47 54.76,29.5 65.08,29.5 74.4,7.03 
		74.4,1.5 	"/>
	<path fill="#222222" d="M103.24,22.03c-2.141,0-3.2-2.5-3.2-7.53c0-5.02,1.06-7.53,3.2-7.53c2.13,0,3.21,2.51,3.21,7.53
		C106.45,19.53,105.37,22.03,103.24,22.03z M103.24,29c2.47,0,4.68-0.561,6.579-1.72c1.91-1.16,3.391-2.811,4.471-5
		c1.08-2.171,1.63-4.761,1.63-7.78c0-3-0.55-5.59-1.63-7.78c-1.08-2.17-2.561-3.83-4.471-4.99C107.92,0.58,105.71,0,103.24,0
		c-2.48,0-4.671,0.58-6.57,1.73c-1.91,1.16-3.41,2.82-4.49,4.99c-1.09,2.19-1.62,4.78-1.62,7.78c0,3.02,0.53,5.609,1.62,7.78
		c1.08,2.189,2.58,3.84,4.49,5C98.57,28.439,100.76,29,103.24,29z"/>
	<path fill="#222222" d="M145.04,22.03c-2.141,0-3.2-2.5-3.2-7.53c0-5.02,1.06-7.53,3.2-7.53c2.13,0,3.21,2.51,3.21,7.53
		C148.25,19.53,147.17,22.03,145.04,22.03z M145.04,29c2.47,0,4.68-0.561,6.58-1.72c1.909-1.16,3.39-2.811,4.47-5
		c1.08-2.171,1.63-4.761,1.63-7.78c0-3-0.55-5.59-1.63-7.78c-1.08-2.17-2.561-3.83-4.47-4.99c-1.9-1.15-4.11-1.73-6.58-1.73
		c-2.48,0-4.67,0.58-6.57,1.73c-1.91,1.16-3.41,2.82-4.49,4.99c-1.09,2.19-1.62,4.78-1.62,7.78c0,3.02,0.53,5.609,1.62,7.78
		c1.08,2.189,2.58,3.84,4.49,5C140.37,28.439,142.56,29,145.04,29z"/>
	<polygon fill="#F90808" points="172.2,1.5 172.2,8.47 177,8.47 177,29.5 186.44,29.5 186.44,1.5 	"/>
</g>
<rect x="75.8" y="19" fill="#444444" width="9" height="9"/>
<rect x="118.8" y="19" fill="#444444" width="9" height="9"/>
<rect x="161.8" y="19" fill="#444444" width="9" height="9"/>
</svg>
