<svg width="20" height="20" viewBox="0 0 20 20" fill="none" xmlns="http://www.w3.org/2000/svg">
<path d="M10 0.625C8.17664 0.625 6.42795 1.34933 5.13864 2.63864C3.84933 3.92795 3.125 5.67664 3.125 7.5C3.125 11.1313 9.25 18.8125 9.5125 19.1437C9.57106 19.2167 9.64527 19.2757 9.72965 19.3161C9.81402 19.3566 9.90641 19.3776 10 19.3776C10.0936 19.3776 10.186 19.3566 10.2704 19.3161C10.3547 19.2757 10.4289 19.2167 10.4875 19.1437C10.75 18.8125 16.875 11.1313 16.875 7.5C16.875 5.67664 16.1507 3.92795 14.8614 2.63864C13.572 1.34933 11.8234 0.625 10 0.625ZM10 9.375C9.50555 9.375 9.0222 9.22838 8.61107 8.95367C8.19995 8.67897 7.87952 8.28852 7.6903 7.83171C7.50108 7.37489 7.45157 6.87223 7.54804 6.38727C7.6445 5.90232 7.8826 5.45686 8.23223 5.10723C8.58186 4.7576 9.02732 4.5195 9.51227 4.42304C9.99723 4.32657 10.4999 4.37608 10.9567 4.5653C11.4135 4.75452 11.804 5.07495 12.0787 5.48607C12.3534 5.8972 12.5 6.38055 12.5 6.875C12.5 7.53804 12.2366 8.17393 11.7678 8.64277C11.2989 9.11161 10.663 9.375 10 9.375Z" fill="#0090CC"/>
</svg>
