<svg width="16" height="16" viewBox="0 0 16 16" fill="none" xmlns="http://www.w3.org/2000/svg">
<path d="M14.7766 1.43555C15.0989 1.52344 15.3333 1.78711 15.3333 2.10938C15.3333 9.63867 9.2395 15.7031 1.7395 15.7031C1.38794 15.7031 1.12427 15.498 1.03638 15.1758L0.333252 12.1289C0.274658 11.8066 0.421143 11.4551 0.743408 11.3086L4.02466 9.90234C4.31763 9.78516 4.63989 9.87305 4.84497 10.1074L6.30981 11.8945C8.59497 10.8105 10.4407 8.93555 11.4954 6.70898L9.70825 5.24414C9.47388 5.03906 9.38599 4.7168 9.50317 4.42383L10.9094 1.14258C11.0559 0.820312 11.4075 0.644531 11.7297 0.732422L14.7766 1.43555Z" fill="#0090CC"/>
</svg>
