<svg width="16" height="12" viewBox="0 0 16 12" fill="none" xmlns="http://www.w3.org/2000/svg">
<path d="M15.3737 4.29883C15.4908 4.21094 15.6666 4.29883 15.6666 4.44531V10.4219C15.6666 11.2129 15.0221 11.8281 14.2604 11.8281H2.07288C1.28186 11.8281 0.666626 11.2129 0.666626 10.4219V4.44531C0.666626 4.29883 0.81311 4.21094 0.930298 4.29883C1.60413 4.82617 2.45374 5.4707 5.44202 7.63867C6.05725 8.07812 7.11194 9.04492 8.16663 9.04492C9.19202 9.04492 10.276 8.07812 10.8619 7.63867C13.8502 5.4707 14.6998 4.82617 15.3737 4.29883ZM8.16663 8.07812C7.4635 8.10742 6.4967 7.22852 5.99866 6.87695C2.10217 4.06445 1.8092 3.80078 0.930298 3.09766C0.754517 2.98047 0.666626 2.77539 0.666626 2.54102V1.98438C0.666626 1.22266 1.28186 0.578125 2.07288 0.578125H14.2604C15.0221 0.578125 15.6666 1.22266 15.6666 1.98438V2.54102C15.6666 2.77539 15.5494 2.98047 15.3737 3.09766C14.4948 3.80078 14.2018 4.06445 10.3053 6.87695C9.80725 7.22852 8.84045 8.10742 8.16663 8.07812Z" fill="#0090CC"/>
</svg>
