<svg width="320" height="320" viewBox="0 0 320 320" fill="none" xmlns="http://www.w3.org/2000/svg">
<rect width="320" height="320" fill="#F2F5F7"/>
<path fill-rule="evenodd" clip-rule="evenodd" d="M105.394 95.9593C92.2311 91.6357 82.7273 79.2529 82.7273 64.6519L94.3745 66.3525C90.9206 61.1429 88.9091 54.8951 88.9091 48.1778L105.394 50.5848V42L197.075 55.8297C207.154 57.35 214.606 66.0056 214.606 76.1916V112.534C221.716 114.363 226.97 120.813 226.97 128.489C226.97 136.165 221.716 142.615 214.606 144.444V151.141H214.52C213.477 169.829 203.024 186.007 187.818 195.02V204.681H206.364C217.202 204.681 226.087 213.044 226.908 223.666C246.766 226.62 262 243.732 262 264.4V320H58V264.4C58 243.016 74.3085 225.438 95.1742 223.41C96.1169 212.911 104.945 204.681 115.697 204.681H132.182V195.02C116.976 186.007 106.523 169.829 105.48 151.141H105.394V144.963C96.2896 144.963 88.9091 137.587 88.9091 128.489C88.9091 119.391 96.2896 112.015 105.394 112.015V95.9593Z" fill="#C2D1D9"/>
</svg>
